# xmcd
#
# Track frame offsets:
#	150
#	18561
#	33020
#	49878
#	65285
#	80843
#	97781
#	116188
#	130646
#	147506
#	162912
#	178342
#
# Disc length: 2605 seconds
#
# Revision: 1
# Processed by: cddbd v1.5.2PL0 Copyright (c) Steve Scherf et al.
# Submitted via: audiograbber 1.83.01
#
DISCID=a20a2b0c
DTITLE=LEE ANN WOMACK - CB20104
DYEAR=1900
DGENRE=KARAOKE
TTITLE0=LITTLE PAST LITTLE ROCK (WVOCAL)
TTITLE1=BUCKAROO (WVOCAL)
TTITLE2=FOOL  (WVOCAL)
TTITLE3=I'LL THINK OF A REASON LATER (WVOCAL)
TTITLE4=NEVER AGAIN, AGAIN (WVOCAL)
TTITLE5=YOU'VE GOT TO TALK TO ME (WVOCAL)
TTITLE6=LITTLE PAST LITTLE ROCK
TTITLE7=BUCKAROO
TTITLE8=FOOL
TTITLE9=I'LL THINK OF A REASON LATER
TTITLE10=NEVER AGAIN, AGAIN
TTITLE11=YOU'VE GOT TO TALK TO ME
EXTD=
EXTT0=
EXTT1=
EXTT2=
EXTT3=
EXTT4=
EXTT5=
EXTT6=
EXTT7=
EXTT8=
EXTT9=
EXTT10=
EXTT11=
PLAYORDER=
